<svg width="42" height="43" viewBox="0 0 42 43" fill="none" xmlns="http://www.w3.org/2000/svg">
<rect x="0.5" y="1.14404" width="41" height="41" rx="5.5" fill="#008EF4" stroke="#E9E6E9"/>
<path d="M21 32C18.6833 31.4167 16.7707 30.0873 15.262 28.012C13.7533 25.9367 12.9993 23.6327 13 21.1V15L21 12L29 15V21.1C29 23.6333 28.2457 25.9377 26.737 28.013C25.2283 30.0883 23.316 31.4173 21 32ZM21 29.9C22.6167 29.4 23.9667 28.4123 25.05 26.937C26.1333 25.4617 26.7667 23.816 26.95 22H21V14.125L15 16.375V21.55C15 21.6667 15.0167 21.8167 15.05 22H21V29.9Z" fill="white"/>
</svg>
