<svg width="27" height="26" viewBox="0 0 27 26" fill="none" xmlns="http://www.w3.org/2000/svg">
<path d="M21.1562 9.25L19.7812 6.25L16.7812 4.875L19.7812 3.5L21.1562 0.5L22.5312 3.5L25.5312 4.875L22.5312 6.25L21.1562 9.25ZM23.6562 18L22.6562 15.875L20.5312 14.875L22.6562 13.875L23.6562 11.75L24.6562 13.875L26.7812 14.875L24.6562 15.875L23.6562 18ZM7.40625 25.5L7.03125 22.5625C6.86458 22.5 6.70333 22.4167 6.5475 22.3125C6.39167 22.2083 6.26125 22.1042 6.15625 22L3.40625 23.1875L0.28125 17.75L2.65625 16V15L0.28125 13.25L3.40625 7.8125L6.15625 9C6.26042 8.89583 6.39083 8.79167 6.5475 8.6875C6.70417 8.58333 6.86542 8.5 7.03125 8.4375L7.40625 5.5H13.6562L14.0312 8.4375C14.1979 8.5 14.3596 8.58333 14.5163 8.6875C14.6729 8.79167 14.8029 8.89583 14.9062 9L17.6562 7.8125L20.7812 13.25L18.4063 15V16L20.7812 17.75L17.6562 23.1875L14.9062 22C14.8021 22.1042 14.6721 22.2083 14.5163 22.3125C14.3604 22.4167 14.1987 22.5 14.0312 22.5625L13.6562 25.5H7.40625ZM10.5312 19.25C11.5729 19.25 12.4583 18.8854 13.1875 18.1562C13.9167 17.4271 14.2812 16.5417 14.2812 15.5C14.2812 14.4583 13.9167 13.5729 13.1875 12.8438C12.4583 12.1146 11.5729 11.75 10.5312 11.75C9.48958 11.75 8.60417 12.1146 7.875 12.8438C7.14583 13.5729 6.78125 14.4583 6.78125 15.5C6.78125 16.5417 7.14583 17.4271 7.875 18.1562C8.60417 18.8854 9.48958 19.25 10.5312 19.25Z" fill="black" fill-opacity="0.5"/>
</svg>
