<svg width="60" height="60" viewBox="0 0 60 60" fill="none" xmlns="http://www.w3.org/2000/svg">
<path d="M26.5 34.5L21.125 29.125C20.6667 28.6667 20.0833 28.4375 19.375 28.4375C18.6667 28.4375 18.0833 28.6667 17.625 29.125C17.1667 29.5833 16.9375 30.1667 16.9375 30.875C16.9375 31.5833 17.1667 32.1667 17.625 32.625L24.75 39.75C25.25 40.25 25.8333 40.5 26.5 40.5C27.1667 40.5 27.75 40.25 28.25 39.75L42.375 25.625C42.8333 25.1667 43.0625 24.5833 43.0625 23.875C43.0625 23.1667 42.8333 22.5833 42.375 22.125C41.9167 21.6667 41.3333 21.4375 40.625 21.4375C39.9167 21.4375 39.3333 21.6667 38.875 22.125L26.5 34.5ZM30 55C26.5417 55 23.2917 54.3433 20.25 53.03C17.2083 51.7167 14.5625 49.9358 12.3125 47.6875C10.0625 45.4375 8.28167 42.7917 6.97 39.75C5.65833 36.7083 5.00167 33.4583 5 30C5 26.5417 5.65667 23.2917 6.97 20.25C8.28333 17.2083 10.0642 14.5625 12.3125 12.3125C14.5625 10.0625 17.2083 8.28167 20.25 6.97C23.2917 5.65833 26.5417 5.00167 30 5C33.4583 5 36.7083 5.65667 39.75 6.97C42.7917 8.28333 45.4375 10.0642 47.6875 12.3125C49.9375 14.5625 51.7192 17.2083 53.0325 20.25C54.3458 23.2917 55.0017 26.5417 55 30C55 33.4583 54.3433 36.7083 53.03 39.75C51.7167 42.7917 49.9358 45.4375 47.6875 47.6875C45.4375 49.9375 42.7917 51.7192 39.75 53.0325C36.7083 54.3458 33.4583 55.0017 30 55Z" fill="#00F439"/>
</svg>
