<svg width="30" height="30" viewBox="0 0 30 30" fill="none" xmlns="http://www.w3.org/2000/svg">
<rect width="30" height="30" rx="5" fill="#00F439"/>
<path d="M15 21.6667C18.6833 21.6667 21.6666 18.6834 21.6666 15.0001C21.6666 11.3167 18.6833 8.33341 15 8.33341C11.3166 8.33341 8.33329 11.3167 8.33329 15.0001C8.33329 18.6834 11.3166 21.6667 15 21.6667ZM15 6.66675C19.5833 6.66675 23.3333 10.4167 23.3333 15.0001C23.3333 19.5834 19.5833 23.3334 15 23.3334C10.3916 23.3334 6.66663 19.5834 6.66663 15.0001C6.66663 10.4167 10.4166 6.66675 15 6.66675ZM15.4166 15.8334H14.1666V10.8334H15.4166V14.3834L18.5 12.6084L19.125 13.6917L15.4166 15.8334Z" fill="white"/>
</svg>
